<svg width="24" height="24" viewBox="0 0 24 24" fill="none" xmlns="http://www.w3.org/2000/svg">
<g clip-path="url(#clip0_168_10583)">
<path d="M12 14.25C11.1337 14.2507 10.2807 14.0368 9.51731 13.6273C8.7539 13.2178 8.10384 12.6256 7.62525 11.9035L8.87475 11.0729C9.21688 11.5886 9.6813 12.0116 10.2266 12.3042C10.7719 12.5969 11.3811 12.75 12 12.75C12.6189 12.75 13.2281 12.5969 13.7734 12.3042C14.3187 12.0116 14.7831 11.5886 15.1252 11.0729L16.3748 11.9035C15.8962 12.6256 15.2461 13.2178 14.4827 13.6273C13.7193 14.0368 12.8663 14.2507 12 14.25Z" fill="white"/>
<path d="M15 6C14.7033 6 14.4133 6.08797 14.1666 6.2528C13.92 6.41762 13.7277 6.65189 13.6142 6.92598C13.5006 7.20006 13.4709 7.50166 13.5288 7.79264C13.5867 8.08361 13.7296 8.35088 13.9393 8.56066C14.1491 8.77044 14.4164 8.9133 14.7074 8.97118C14.9983 9.02906 15.2999 8.99935 15.574 8.88582C15.8481 8.77229 16.0824 8.58003 16.2472 8.33336C16.412 8.08668 16.5 7.79667 16.5 7.5C16.5019 7.30248 16.4645 7.10655 16.3898 6.92368C16.3151 6.74082 16.2047 6.57468 16.065 6.43501C15.9253 6.29533 15.7592 6.18491 15.5763 6.11022C15.3935 6.03553 15.1975 5.99806 15 6Z" fill="white"/>
<path d="M9 6C8.70333 6 8.41332 6.08797 8.16665 6.2528C7.91997 6.41762 7.72771 6.65189 7.61418 6.92598C7.50065 7.20006 7.47094 7.50166 7.52882 7.79264C7.5867 8.08361 7.72956 8.35088 7.93934 8.56066C8.14912 8.77044 8.41639 8.9133 8.70736 8.97118C8.99834 9.02906 9.29994 8.99935 9.57403 8.88582C9.84811 8.77229 10.0824 8.58003 10.2472 8.33336C10.412 8.08668 10.5 7.79667 10.5 7.5C10.5019 7.30248 10.4645 7.10655 10.3898 6.92368C10.3151 6.74082 10.2047 6.57468 10.065 6.43501C9.92532 6.29533 9.75918 6.18491 9.57632 6.11022C9.39345 6.03553 9.19752 5.99806 9 6Z" fill="white"/>
<path d="M13.3018 22.5L12 21.75L15 16.5H19.5C19.6971 16.5003 19.8923 16.4618 20.0744 16.3865C20.2566 16.3112 20.4221 16.2008 20.5614 16.0614C20.7008 15.9221 20.8112 15.7566 20.8865 15.5744C20.9618 15.3923 21.0003 15.1971 21 15V4.5C21.0003 4.30292 20.9618 4.10772 20.8865 3.92558C20.8112 3.74344 20.7008 3.57795 20.5614 3.43859C20.4221 3.29924 20.2566 3.18876 20.0744 3.1135C19.8923 3.03823 19.6971 2.99966 19.5 3H4.5C4.30292 2.99966 4.10772 3.03823 3.92558 3.1135C3.74344 3.18876 3.57795 3.29924 3.43859 3.43859C3.29924 3.57795 3.18876 3.74344 3.1135 3.92558C3.03823 4.10772 2.99966 4.30292 3 4.5V15C2.99966 15.1971 3.03823 15.3923 3.1135 15.5744C3.18876 15.7566 3.29924 15.9221 3.43859 16.0614C3.57795 16.2008 3.74344 16.3112 3.92558 16.3865C4.10772 16.4618 4.30292 16.5003 4.5 16.5H11.25V18H4.5C4.10601 18.0001 3.71588 17.9225 3.35187 17.7718C2.98786 17.621 2.65712 17.4001 2.37853 17.1215C2.09994 16.8429 1.87896 16.5121 1.72822 16.1481C1.57748 15.7841 1.49993 15.394 1.5 15V4.5C1.49988 4.106 1.5774 3.71584 1.72812 3.35181C1.87884 2.98778 2.09982 2.65702 2.37842 2.37842C2.65702 2.09982 2.98778 1.87884 3.35181 1.72812C3.71584 1.5774 4.106 1.49988 4.5 1.5H19.5C19.894 1.49988 20.2842 1.5774 20.6482 1.72812C21.0122 1.87884 21.343 2.09982 21.6216 2.37842C21.9002 2.65702 22.1212 2.98778 22.2719 3.35181C22.4226 3.71584 22.5001 4.106 22.5 4.5V15C22.5001 15.394 22.4225 15.7841 22.2718 16.1481C22.121 16.5121 21.9001 16.8429 21.6215 17.1215C21.3429 17.4001 21.0121 17.621 20.6481 17.7718C20.2841 17.9225 19.894 18.0001 19.5 18H15.8735L13.3018 22.5Z" fill="white"/>
</g>
<defs>
<clipPath id="clip0_168_10583">
<rect width="24" height="24" fill="white"/>
</clipPath>
</defs>
</svg>
