<svg width="25" height="24" viewBox="0 0 25 24" fill="none" xmlns="http://www.w3.org/2000/svg">
<path d="M12.5 12.75V18.75H5V12.75H12.5ZM12.5 11.25H5C4.60218 11.25 4.22064 11.408 3.93934 11.6893C3.65804 11.9706 3.5 12.3522 3.5 12.75V18.75C3.5 19.1478 3.65804 19.5294 3.93934 19.8107C4.22064 20.092 4.60218 20.25 5 20.25H12.5C12.8978 20.25 13.2794 20.092 13.5607 19.8107C13.842 19.5294 14 19.1478 14 18.75V12.75C14 12.3522 13.842 11.9706 13.5607 11.6893C13.2794 11.408 12.8978 11.25 12.5 11.25Z" fill="#6641FA"/>
<path d="M20.75 4.5V8.25H13.25V4.5H20.75ZM20.75 3H13.25C12.8522 3 12.4706 3.15804 12.1893 3.43934C11.908 3.72064 11.75 4.10218 11.75 4.5V8.25C11.75 8.64782 11.908 9.02936 12.1893 9.31066C12.4706 9.59196 12.8522 9.75 13.25 9.75H20.75C21.1478 9.75 21.5294 9.59196 21.8107 9.31066C22.092 9.02936 22.25 8.64782 22.25 8.25V4.5C22.25 4.10218 22.092 3.72064 21.8107 3.43934C21.5294 3.15804 21.1478 3 20.75 3Z" fill="#6641FA"/>
<path d="M20.75 12.75V16.5H17V12.75H20.75ZM20.75 11.25H17C16.6022 11.25 16.2206 11.408 15.9393 11.6893C15.658 11.9706 15.5 12.3522 15.5 12.75V16.5C15.5 16.8978 15.658 17.2794 15.9393 17.5607C16.2206 17.842 16.6022 18 17 18H20.75C21.1478 18 21.5294 17.842 21.8107 17.5607C22.092 17.2794 22.25 16.8978 22.25 16.5V12.75C22.25 12.3522 22.092 11.9706 21.8107 11.6893C21.5294 11.408 21.1478 11.25 20.75 11.25Z" fill="#6641FA"/>
<path d="M8.75 4.5V8.25H5V4.5H8.75ZM8.75 3H5C4.60218 3 4.22064 3.15804 3.93934 3.43934C3.65804 3.72064 3.5 4.10218 3.5 4.5V8.25C3.5 8.64782 3.65804 9.02936 3.93934 9.31066C4.22064 9.59196 4.60218 9.75 5 9.75H8.75C9.14782 9.75 9.52936 9.59196 9.81066 9.31066C10.092 9.02936 10.25 8.64782 10.25 8.25V4.5C10.25 4.10218 10.092 3.72064 9.81066 3.43934C9.52936 3.15804 9.14782 3 8.75 3Z" fill="#6641FA"/>
</svg>
