<svg width="25" height="24" viewBox="0 0 25 24" fill="none" xmlns="http://www.w3.org/2000/svg">
<g clip-path="url(#clip0_202_2401)">
<path d="M20 10.5H18.5V12H20C20.5965 12.0007 21.1685 12.2379 21.5903 12.6597C22.0121 13.0815 22.2493 13.6535 22.25 14.25V17.25H23.75V14.25C23.7488 13.2558 23.3534 12.3026 22.6504 11.5996C21.9474 10.8966 20.9942 10.5012 20 10.5Z" fill="#919191"/>
<path d="M18.5 3C18.945 3 19.38 3.13196 19.75 3.37919C20.12 3.62643 20.4084 3.97783 20.5787 4.38896C20.749 4.8001 20.7936 5.2525 20.7068 5.68895C20.62 6.12541 20.4057 6.52632 20.091 6.84099C19.7763 7.15566 19.3754 7.36995 18.939 7.45677C18.5025 7.54358 18.0501 7.49903 17.639 7.32873C17.2278 7.15843 16.8764 6.87004 16.6292 6.50003C16.382 6.13002 16.25 5.69501 16.25 5.25C16.25 4.65326 16.4871 4.08097 16.909 3.65901C17.331 3.23705 17.9033 3 18.5 3ZM18.5 1.5C17.7583 1.5 17.0333 1.71993 16.4166 2.13199C15.7999 2.54404 15.3193 3.12971 15.0355 3.81494C14.7516 4.50016 14.6774 5.25416 14.8221 5.98159C14.9667 6.70902 15.3239 7.3772 15.8483 7.90165C16.3728 8.4261 17.041 8.78325 17.7684 8.92795C18.4958 9.07264 19.2498 8.99838 19.9351 8.71455C20.6203 8.43072 21.206 7.95007 21.618 7.33339C22.0301 6.7167 22.25 5.99168 22.25 5.25C22.25 4.25544 21.8549 3.30161 21.1516 2.59835C20.4484 1.89509 19.4946 1.5 18.5 1.5Z" fill="#919191"/>
<path d="M17.75 22.5H16.25V21C16.2493 20.4035 16.0121 19.8315 15.5903 19.4097C15.1685 18.9879 14.5965 18.7507 14 18.75H11C10.4035 18.7507 9.83155 18.9879 9.40973 19.4097C8.98792 19.8315 8.75066 20.4035 8.75 21V22.5H7.25V21C7.25117 20.0058 7.64664 19.0527 8.34964 18.3496C9.05265 17.6466 10.0058 17.2512 11 17.25H14C14.9942 17.2512 15.9473 17.6466 16.6504 18.3496C17.3534 19.0527 17.7488 20.0058 17.75 21V22.5Z" fill="#919191"/>
<path d="M12.5 9.75C12.945 9.75 13.38 9.88196 13.75 10.1292C14.12 10.3764 14.4084 10.7278 14.5787 11.139C14.749 11.5501 14.7936 12.0025 14.7068 12.439C14.62 12.8754 14.4057 13.2763 14.091 13.591C13.7763 13.9057 13.3754 14.12 12.939 14.2068C12.5025 14.2936 12.0501 14.249 11.639 14.0787C11.2278 13.9084 10.8764 13.62 10.6292 13.25C10.382 12.88 10.25 12.445 10.25 12C10.25 11.4033 10.4871 10.831 10.909 10.409C11.331 9.98705 11.9033 9.75 12.5 9.75ZM12.5 8.25C11.7583 8.25 11.0333 8.46993 10.4166 8.88199C9.79993 9.29404 9.31928 9.87971 9.03545 10.5649C8.75162 11.2502 8.67736 12.0042 8.82205 12.7316C8.96675 13.459 9.3239 14.1272 9.84835 14.6517C10.3728 15.1761 11.041 15.5333 11.7684 15.6779C12.4958 15.8226 13.2498 15.7484 13.9351 15.4645C14.6203 15.1807 15.206 14.7001 15.618 14.0834C16.0301 13.4667 16.25 12.7417 16.25 12C16.25 11.0054 15.8549 10.0516 15.1517 9.34835C14.4484 8.64509 13.4946 8.25 12.5 8.25Z" fill="#919191"/>
<path d="M6.5 10.5H5C4.0058 10.5012 3.05265 10.8966 2.34964 11.5996C1.64664 12.3027 1.25117 13.2558 1.25 14.25V17.25H2.75V14.25C2.75066 13.6535 2.98792 13.0815 3.40973 12.6597C3.83155 12.2379 4.40346 12.0007 5 12H6.5V10.5Z" fill="#919191"/>
<path d="M6.5 3C6.94501 3 7.38002 3.13196 7.75003 3.37919C8.12004 3.62643 8.40843 3.97783 8.57873 4.38896C8.74903 4.8001 8.79358 5.2525 8.70677 5.68895C8.61995 6.12541 8.40566 6.52632 8.09099 6.84099C7.77632 7.15566 7.37541 7.36995 6.93895 7.45677C6.5025 7.54358 6.0501 7.49903 5.63896 7.32873C5.22783 7.15843 4.87643 6.87004 4.62919 6.50003C4.38196 6.13002 4.25 5.69501 4.25 5.25C4.25 4.65326 4.48705 4.08097 4.90901 3.65901C5.33097 3.23705 5.90326 3 6.5 3ZM6.5 1.5C5.75832 1.5 5.0333 1.71993 4.41661 2.13199C3.79993 2.54404 3.31928 3.12971 3.03545 3.81494C2.75162 4.50016 2.67736 5.25416 2.82206 5.98159C2.96675 6.70902 3.3239 7.3772 3.84835 7.90165C4.3728 8.4261 5.04098 8.78325 5.76841 8.92795C6.49584 9.07264 7.24984 8.99838 7.93506 8.71455C8.62029 8.43072 9.20596 7.95007 9.61801 7.33339C10.0301 6.7167 10.25 5.99168 10.25 5.25C10.25 4.25544 9.85491 3.30161 9.15165 2.59835C8.44839 1.89509 7.49456 1.5 6.5 1.5Z" fill="#919191"/>
</g>
<defs>
<clipPath id="clip0_202_2401">
<rect width="24" height="24" fill="white" transform="translate(0.5)"/>
</clipPath>
</defs>
</svg>
