<svg width="25" height="24" viewBox="0 0 25 24" fill="none" xmlns="http://www.w3.org/2000/svg">
<path d="M14.0004 14.25H8.00039V15.75H14.0004V14.25Z" fill="#919191"/>
<path d="M17.0004 11.25H8.00039V12.75H17.0004V11.25Z" fill="#919191"/>
<path d="M17.0004 8.25H8.00039V9.75H17.0004V8.25Z" fill="#919191"/>
<path d="M12.5004 1.5V3C17.4504 3 21.5004 7.05 21.5004 12C21.5004 16.95 17.4504 21 12.5004 21V22.5C18.2754 22.5 23.0004 17.775 23.0004 12C23.0004 6.225 18.2754 1.5 12.5004 1.5Z" fill="#919191"/>
<path d="M6.65039 18.825L5.75039 20.025C6.65039 20.775 7.70039 21.45 8.90039 21.825L9.42539 20.4C8.37539 20.025 7.47539 19.5 6.65039 18.825Z" fill="#919191"/>
<path d="M3.65039 13.5L2.15039 13.8C2.37539 15 2.82539 16.2 3.42539 17.25L4.70039 16.5C4.17539 15.6 3.80039 14.55 3.65039 13.5Z" fill="#919191"/>
<path d="M4.70039 7.5L3.42539 6.75C2.82539 7.8 2.37539 9 2.22539 10.2L3.72539 10.425C3.80039 9.375 4.17539 8.4 4.70039 7.5Z" fill="#919191"/>
<path d="M9.35039 3.6L8.82539 2.175C7.70039 2.625 6.65039 3.225 5.75039 3.975L6.72539 5.1C7.47539 4.5 8.37539 3.975 9.35039 3.6Z" fill="#919191"/>
</svg>
