<svg width="24" height="25" viewBox="0 0 24 25" fill="none" xmlns="http://www.w3.org/2000/svg">
<path fill-rule="evenodd" clip-rule="evenodd" d="M7.6129 6.40972C7.22061 6.10469 6.65338 6.13242 6.29289 6.49291L6.2097 6.58711C5.90468 6.9794 5.93241 7.54664 6.29289 7.90712L10.585 12.2L6.29289 16.4929L6.2097 16.5871C5.90468 16.9794 5.93241 17.5466 6.29289 17.9071C6.68342 18.2976 7.31658 18.2976 7.70711 17.9071L12.7071 12.9071L12.7903 12.8129C13.0953 12.4206 13.0676 11.8534 12.7071 11.4929L7.70711 6.49291L7.6129 6.40972ZM13.6129 6.40972C13.2206 6.10469 12.6534 6.13242 12.2929 6.49291L12.2097 6.58711C11.9047 6.9794 11.9324 7.54664 12.2929 7.90712L16.585 12.2L12.2929 16.4929L12.2097 16.5871C11.9047 16.9794 11.9324 17.5466 12.2929 17.9071C12.6834 18.2976 13.3166 18.2976 13.7071 17.9071L18.7071 12.9071L18.7903 12.8129C19.0953 12.4206 19.0676 11.8534 18.7071 11.4929L13.7071 6.49291L13.6129 6.40972Z" fill="white"/>
</svg>
