<svg width="20" height="20" viewBox="0 0 20 20" fill="none" xmlns="http://www.w3.org/2000/svg">
<path d="M7.00001 5.70004H3.08501C4.05502 4.20928 5.48082 3.07192 7.14987 2.45747C8.81892 1.84303 10.6419 1.78442 12.3469 2.29038C14.052 2.79634 15.5479 3.83977 16.6117 5.26514C17.6755 6.6905 18.2501 8.42148 18.25 10.2H19.75C19.7521 8.19416 19.1354 6.23645 17.9841 4.59387C16.8328 2.95129 15.2029 1.70378 13.3166 1.02144C11.4304 0.339109 9.37956 0.25516 7.44384 0.781045C5.50812 1.30693 3.78171 2.41705 2.50001 3.96004V1.20004H1.00001V7.20004H7.00001V5.70004Z" fill="#6641FA"/>
<path d="M13 14.7H16.915C15.945 16.1908 14.5192 17.3282 12.8501 17.9426C11.1811 18.5571 9.35816 18.6157 7.65308 18.1097C5.948 17.6037 4.45209 16.5603 3.38832 15.1349C2.32455 13.7096 1.74989 11.9786 1.75001 10.2H0.250005C0.24794 12.2059 0.864601 14.1636 2.0159 15.8062C3.1672 17.4488 4.79711 18.6963 6.68337 19.3786C8.56964 20.061 10.6204 20.1449 12.5562 19.619C14.4919 19.0932 16.2183 17.983 17.5 16.44V19.2H19V13.2H13V14.7Z" fill="#6641FA"/>
</svg>
