<svg width="21" height="20" viewBox="0 0 21 20" fill="none" xmlns="http://www.w3.org/2000/svg">
<path d="M3.41875 17.5L7.4125 10L11.975 14.0562C12.1179 14.1832 12.2879 14.2757 12.4721 14.3266C12.6563 14.3775 12.8497 14.3855 13.0375 14.35C13.227 14.3145 13.4057 14.2357 13.5597 14.1197C13.7136 14.0037 13.8387 13.8536 13.925 13.6812L17.375 6.8125L16.2375 6.25L12.8063 13.125L8.24375 9.06875C8.1045 8.93925 7.93755 8.84324 7.7556 8.788C7.57364 8.73276 7.38148 8.71977 7.19375 8.75C7.00835 8.78076 6.83227 8.85293 6.67862 8.96114C6.52496 9.06934 6.39768 9.21081 6.30625 9.375L3 15.625V1.25H1.75V17.5C1.75 17.8315 1.8817 18.1495 2.11612 18.3839C2.35054 18.6183 2.66848 18.75 3 18.75H19.25V17.5H3.41875Z" fill="#6641FA"/>
</svg>
