<svg width="21" height="20" viewBox="0 0 21 20" fill="none" xmlns="http://www.w3.org/2000/svg">
<path d="M18 1.25H11.125C10.7936 1.25033 10.4758 1.38213 10.2415 1.61648C10.0071 1.85083 9.87533 2.16858 9.875 2.5V6.25H3C2.66858 6.25033 2.35083 6.38213 2.11648 6.61648C1.88213 6.85083 1.75033 7.16858 1.75 7.5V17.5C1.75038 17.8314 1.8822 18.1491 2.11654 18.3835C2.35087 18.6178 2.6686 18.7496 3 18.75H9.875C10.2064 18.7496 10.5241 18.6178 10.7585 18.3835C10.9928 18.1491 11.1246 17.8314 11.125 17.5V13.75H18C18.3314 13.7496 18.6491 13.6177 18.8834 13.3834C19.1177 13.1491 19.2496 12.8314 19.25 12.5V2.5C19.2496 2.1686 19.1178 1.85087 18.8835 1.61654C18.6491 1.3822 18.3314 1.25038 18 1.25ZM18 2.5V5H11.125V2.5H18ZM9.87556 13.75H3V11.25H9.875L9.87556 13.75ZM11.125 6.25H18.0004L18.0007 8.75H11.125V6.25ZM9.875 7.5V10H3V7.5H9.875ZM3 17.5V15H9.87569V17.5H3ZM11.125 12.5V10H18.0009V12.5H11.125Z" fill="#6641FA"/>
</svg>
