<svg width="512" height="302" viewBox="0 0 512 302" fill="none" xmlns="http://www.w3.org/2000/svg">
<path d="M7.40005 12.9812C16.6244 14.0507 83.5855 11.2219 94.0291 11.0348C99.2375 10.9385 99.6225 2.61784 94.3286 2.82104C83.7887 3.22211 16.2555 4.78357 6.79044 6.46267C2.91352 7.14715 3.92953 12.5695 7.40005 12.9812Z" fill="#2A2A2A"/>
<path d="M125.686 100.49C125.92 69.5621 123.944 36.411 123.835 5.29207C123.835 -2.5872 116.66 -1.26845 116.703 6.60253C116.881 39.5628 117.062 72.4981 117.246 105.409C101.05 105.409 27.9695 108.436 11.2953 113.222C9.53667 84.9308 8.69534 56.4161 5.97058 28.2747C5.83204 27.1603 5.42912 26.1634 4.83911 25.4751C4.24911 24.7867 3.51357 24.4555 2.77358 24.545C2.03359 24.6344 1.34128 25.1382 0.829419 25.9597C0.317558 26.7811 0.0221817 27.8625 0 28.9963C0.863022 56.6318 1.62834 84.8644 3.01244 112.5C3.75062 127.205 3.78318 126.226 13.2764 125.173C46.1472 121.515 79.6151 118.538 112.567 118.082C122.077 117.941 125.545 118.936 125.686 100.49Z" fill="#2A2A2A"/>
<path d="M103.295 181.592C75.8036 181.372 46.3361 183.238 18.6748 183.34C11.671 183.34 12.8432 190.117 19.8396 190.076C49.1376 189.909 78.4135 189.738 107.667 189.563C107.667 204.86 110.358 273.88 114.612 289.628C89.4647 291.289 64.1184 292.084 39.1037 294.657C38.1132 294.788 37.227 295.168 36.6152 295.726C36.0034 296.283 35.709 296.978 35.7884 297.676C35.8679 298.375 36.3158 299.029 37.046 299.513C37.7762 299.996 38.7374 300.275 39.7452 300.296C64.31 299.481 89.4057 298.758 113.971 297.451C127.042 296.754 126.172 296.723 125.236 287.757C121.984 256.712 119.338 225.104 118.932 193.982C118.807 185.001 119.692 181.725 103.295 181.592Z" fill="#2A2A2A"/>
<path d="M82.7546 181.622C64.846 181.852 45.3224 182.13 27.5153 184.156C8.93281 186.295 10.2429 187.857 11.5584 204.605C11.8617 209.009 12.4259 213.391 13.2482 217.728C13.3462 218.54 13.7384 219.289 14.3508 219.832C14.9632 220.375 15.7532 220.675 16.5717 220.675C17.3901 220.675 18.1802 220.375 18.7925 219.832C19.4049 219.289 19.7972 218.54 19.8951 217.728C19.8951 214.68 18.4139 193.98 18.8256 193.472C19.2374 192.964 75.466 189.017 81.4713 188.605C86.6476 188.247 87.915 181.552 82.7546 181.622Z" fill="#2A2A2A"/>
<path d="M22.8129 263.525C22.632 262.714 22.1627 261.997 21.4922 261.506C20.8217 261.015 19.9957 260.784 19.1679 260.857C18.3401 260.929 17.5669 261.3 16.9921 261.9C16.4172 262.5 16.0799 263.289 16.043 264.119C16.2792 275.204 17.0842 286.27 18.4547 297.273C18.3765 298.314 18.7143 299.343 19.394 300.135C20.0737 300.927 21.0398 301.417 22.0803 301.498C22.615 301.541 63.582 300.487 93.5439 297.653C101.207 296.931 96.5492 290.07 92.0627 290.418C70.8974 292.022 47.1974 292.872 25.9465 293.503C25.1016 283.21 24.3797 273.392 22.8129 263.525Z" fill="#2A2A2A"/>
<path d="M410.808 85.401C418.937 84.9518 416.562 72.5029 408.52 72.9575C350.409 76.2515 291.303 72.7436 234.973 76.2622C228.556 76.6579 229.684 86.3743 235.508 87.0534C269.095 90.9677 378.007 87.2566 410.808 85.401Z" fill="#2A2A2A"/>
<path d="M505.267 7.7774C436.028 5.48868 290.031 6.17316 225.691 12.9431C220.439 13.4778 219.001 23.1407 225.311 23.1033C298.962 22.6434 420.381 17.7077 506.454 20.4295C514.668 20.6969 513.315 8.04477 505.267 7.7774Z" fill="#2A2A2A"/>
<path d="M496.681 184.88C412.822 191.832 312.316 183.175 235.896 192.415C229.842 193.148 231.361 203.452 237.586 203.11C305.814 199.03 406.897 201.96 497.018 197.693C505.146 197.281 504.932 184.196 496.681 184.88Z" fill="#2A2A2A"/>
<path d="M400.131 244.305C360.929 241.963 274.166 242.22 241.311 243.835C235.172 244.139 234.285 254.492 240.675 254.883C289.61 257.888 343.026 257.733 399.404 256.578C406.056 256.444 407.452 244.738 400.131 244.305Z" fill="#2A2A2A"/>
</svg>
