<svg width="24" height="16" viewBox="0 0 24 16" fill="none" xmlns="http://www.w3.org/2000/svg">
<path d="M23.855 7.39167C21.5954 2.98292 17.1221 0 12 0C6.87789 0 2.40331 2.985 0.144977 7.39208C0.0496613 7.58063 0 7.78894 0 8.00021C0 8.21148 0.0496613 8.41979 0.144977 8.60833C2.40456 13.0171 6.87789 16 12 16C17.1221 16 21.5966 13.015 23.855 8.60792C23.9503 8.41937 24 8.21106 24 7.99979C24 7.78852 23.9503 7.58021 23.855 7.39167ZM12 14C10.8133 14 9.65325 13.6481 8.66656 12.9888C7.67986 12.3295 6.91083 11.3925 6.4567 10.2961C6.00257 9.19974 5.88375 7.99334 6.11527 6.82946C6.34678 5.66557 6.91822 4.59647 7.75734 3.75736C8.59645 2.91824 9.66555 2.3468 10.8294 2.11529C11.9933 1.88378 13.1997 2.0026 14.2961 2.45672C15.3924 2.91085 16.3295 3.67988 16.9888 4.66658C17.6481 5.65327 18 6.81331 18 8C18.0004 8.78804 17.8454 9.56843 17.544 10.2966C17.2426 11.0247 16.8007 11.6863 16.2435 12.2435C15.6862 12.8007 15.0247 13.2427 14.2965 13.5441C13.5684 13.8455 12.788 14.0004 12 14ZM12 4C11.6429 4.00499 11.2882 4.05811 10.9454 4.15792C11.228 4.54195 11.3636 5.01454 11.3276 5.48998C11.2917 5.96542 11.0865 6.41223 10.7494 6.74938C10.4122 7.08652 9.96539 7.29168 9.48995 7.32765C9.01451 7.36362 8.54192 7.22801 8.15789 6.94542C7.93921 7.75108 7.97869 8.60503 8.27076 9.38708C8.56283 10.1691 9.0928 10.8399 9.78607 11.305C10.4793 11.7701 11.301 12.006 12.1354 11.9797C12.9698 11.9533 13.7749 11.666 14.4374 11.158C15.1 10.6501 15.5865 9.94726 15.8287 9.14833C16.0708 8.3494 16.0563 7.49466 15.7872 6.70441C15.5181 5.91415 15.008 5.22818 14.3286 4.74305C13.6492 4.25791 12.8348 3.99803 12 4Z" fill="#6641FA"/>
</svg>
