<svg width="18" height="18" viewBox="0 0 18 18" fill="none" xmlns="http://www.w3.org/2000/svg">
<path d="M9.625 12.75V7.74999H7.125V8.99999H8.375V12.75H6.5V14H11.5V12.75H9.625Z" fill="#919191"/>
<path d="M9 3.99999C8.81458 3.99999 8.63333 4.05497 8.47916 4.15799C8.32499 4.261 8.20482 4.40742 8.13387 4.57872C8.06291 4.75003 8.04434 4.93853 8.08052 5.12039C8.11669 5.30224 8.20598 5.46929 8.33709 5.6004C8.4682 5.73151 8.63525 5.8208 8.81711 5.85698C8.99896 5.89315 9.18746 5.87458 9.35877 5.80363C9.53007 5.73267 9.67649 5.61251 9.77951 5.45834C9.88252 5.30416 9.9375 5.12291 9.9375 4.93749C9.9375 4.68885 9.83873 4.45039 9.66292 4.27458C9.4871 4.09876 9.24864 3.99999 9 3.99999Z" fill="#919191"/>
<path d="M9 17.75C7.26942 17.75 5.57769 17.2368 4.13876 16.2753C2.69983 15.3139 1.57832 13.9473 0.916058 12.3485C0.253791 10.7496 0.080512 8.99028 0.418133 7.29295C0.755753 5.59562 1.58911 4.03651 2.81282 2.8128C4.03653 1.58909 5.59563 0.755738 7.29296 0.418117C8.9903 0.0804968 10.7496 0.253776 12.3485 0.916043C13.9473 1.57831 15.3139 2.69982 16.2754 4.13875C17.2368 5.57768 17.75 7.2694 17.75 8.99999C17.75 11.3206 16.8281 13.5462 15.1872 15.1872C13.5462 16.8281 11.3206 17.75 9 17.75ZM9 1.49999C7.51664 1.49999 6.0666 1.93986 4.83323 2.76397C3.59986 3.58808 2.63856 4.75942 2.07091 6.12986C1.50325 7.50031 1.35473 9.00831 1.64411 10.4632C1.9335 11.918 2.64781 13.2544 3.6967 14.3033C4.7456 15.3522 6.08197 16.0665 7.53683 16.3559C8.99168 16.6453 10.4997 16.4967 11.8701 15.9291C13.2406 15.3614 14.4119 14.4001 15.236 13.1668C16.0601 11.9334 16.5 10.4833 16.5 8.99999C16.5 7.01087 15.7098 5.10321 14.3033 3.69669C12.8968 2.29016 10.9891 1.49999 9 1.49999Z" fill="#919191"/>
</svg>
