<svg width="20" height="20" viewBox="0 0 20 20" fill="none" xmlns="http://www.w3.org/2000/svg">
<path d="M5.62501 8.75C5.00694 8.75 4.40275 8.56672 3.88885 8.22334C3.37495 7.87996 2.97441 7.39191 2.73788 6.82089C2.50136 6.24987 2.43947 5.62153 2.56005 5.01534C2.68063 4.40915 2.97826 3.85233 3.4153 3.41529C3.85234 2.97825 4.40916 2.68063 5.01535 2.56005C5.62154 2.43947 6.24987 2.50135 6.82089 2.73788C7.39191 2.9744 7.87997 3.37494 8.22335 3.88884C8.56673 4.40275 8.75001 5.00694 8.75001 5.625C8.7491 6.45352 8.41956 7.24785 7.83371 7.8337C7.24786 8.41956 6.45353 8.74909 5.62501 8.75ZM5.62501 3.75C5.25417 3.75 4.89165 3.85997 4.58331 4.066C4.27497 4.27202 4.03465 4.56486 3.89273 4.90747C3.75082 5.25008 3.71369 5.62708 3.78603 5.9908C3.85838 6.35451 4.03696 6.6886 4.29918 6.95083C4.5614 7.21305 4.8955 7.39163 5.25921 7.46397C5.62293 7.53632 5.99993 7.49919 6.34254 7.35728C6.68515 7.21536 6.97798 6.97504 7.18401 6.6667C7.39004 6.35835 7.50001 5.99584 7.50001 5.625C7.49946 5.12789 7.30174 4.65129 6.95023 4.29978C6.59872 3.94827 6.12212 3.75055 5.62501 3.75Z" fill="#6641FA"/>
<path d="M16.6162 2.50003L2.5 16.6162L3.3838 17.5L17.5 3.38383L16.6162 2.50003Z" fill="#6641FA"/>
<path d="M14.375 17.5C13.7569 17.5 13.1528 17.3167 12.6388 16.9733C12.1249 16.63 11.7244 16.1419 11.4879 15.5709C11.2514 14.9999 11.1895 14.3715 11.3101 13.7653C11.4306 13.1592 11.7283 12.6023 12.1653 12.1653C12.6023 11.7283 13.1592 11.4306 13.7653 11.31C14.3715 11.1895 14.9999 11.2514 15.5709 11.4879C16.1419 11.7244 16.63 12.1249 16.9733 12.6388C17.3167 13.1527 17.5 13.7569 17.5 14.375C17.4991 15.2035 17.1696 15.9979 16.5837 16.5837C15.9979 17.1696 15.2035 17.4991 14.375 17.5ZM14.375 12.5C14.0042 12.5 13.6417 12.61 13.3333 12.816C13.025 13.022 12.7846 13.3149 12.6427 13.6575C12.5008 14.0001 12.4637 14.3771 12.536 14.7408C12.6084 15.1045 12.787 15.4386 13.0492 15.7008C13.3114 15.9631 13.6455 16.1416 14.0092 16.214C14.3729 16.2863 14.7499 16.2492 15.0925 16.1073C15.4351 15.9654 15.728 15.725 15.934 15.4167C16.14 15.1084 16.25 14.7458 16.25 14.375C16.2495 13.8779 16.0517 13.4013 15.7002 13.0498C15.3487 12.6983 14.8721 12.5005 14.375 12.5Z" fill="#6641FA"/>
</svg>
