<svg width="65" height="64" viewBox="0 0 65 64" fill="none" xmlns="http://www.w3.org/2000/svg">
<g clip-path="url(#clip0_444_23602)">
<path d="M56.5 20H44.5V12C44.5 10.9391 44.0786 9.92172 43.3284 9.17157C42.5783 8.42143 41.5609 8 40.5 8H24.5C23.4391 8 22.4217 8.42143 21.6716 9.17157C20.9214 9.92172 20.5 10.9391 20.5 12V20H8.5C7.43913 20 6.42172 20.4214 5.67157 21.1716C4.92143 21.9217 4.5 22.9391 4.5 24V52C4.5 53.0609 4.92143 54.0783 5.67157 54.8284C6.42172 55.5786 7.43913 56 8.5 56H56.5C57.5609 56 58.5783 55.5786 59.3284 54.8284C60.0786 54.0783 60.5 53.0609 60.5 52V24C60.5 22.9391 60.0786 21.9217 59.3284 21.1716C58.5783 20.4214 57.5609 20 56.5 20ZM24.5 12H40.5V20H24.5V12ZM8.5 52V24H56.5V52H8.5Z" fill="#C8C8C8"/>
</g>
<defs>
<clipPath id="clip0_444_23602">
<rect width="64" height="64" fill="white" transform="translate(0.5)"/>
</clipPath>
</defs>
</svg>
