<svg width="24" height="25" viewBox="0 0 24 25" fill="none" xmlns="http://www.w3.org/2000/svg">
<path d="M19.5 18.2V21.2H4.5V18.2H3V21.2L3.0057 21.1963C3.00499 21.3932 3.04309 21.5883 3.11782 21.7704C3.19255 21.9526 3.30244 22.1182 3.44122 22.2579C3.57999 22.3975 3.74493 22.5084 3.92661 22.5843C4.10828 22.6602 4.30312 22.6995 4.5 22.7H19.5C19.8978 22.7 20.2794 22.542 20.5607 22.2607C20.842 21.9794 21 21.5978 21 21.2V18.2H19.5Z" fill="white"/>
<path d="M4.5 9.20001L5.55825 10.2538L11.25 4.56876V18.2H12.75V4.56876L18.4432 10.2538L19.5 9.20001L12 1.70001L4.5 9.20001Z" fill="white"/>
</svg>
