<svg width="20" height="20" viewBox="0 0 20 20" fill="none" xmlns="http://www.w3.org/2000/svg">
<path d="M4.375 17.5C4.20924 17.5 4.05027 17.4342 3.93306 17.317C3.81585 17.1998 3.75 17.0408 3.75 16.875V3.12505C3.74999 3.01643 3.77829 2.90969 3.8321 2.81535C3.88591 2.721 3.96338 2.64231 4.05687 2.58702C4.15037 2.53174 4.25665 2.50177 4.36525 2.50008C4.47385 2.49838 4.58102 2.52502 4.67619 2.57736L17.1762 9.45236C17.2743 9.50629 17.356 9.58556 17.413 9.6819C17.47 9.77823 17.5 9.8881 17.5 10C17.5 10.1119 17.47 10.2218 17.413 10.3181C17.356 10.4145 17.2743 10.4937 17.1762 10.5477L4.67619 17.4227C4.58391 17.4734 4.48031 17.5 4.375 17.5ZM5 4.18186V15.818L15.578 10L5 4.18186Z" fill="#6641FA"/>
</svg>
