<svg width="24" height="22" viewBox="0 0 24 22" fill="none" xmlns="http://www.w3.org/2000/svg">
<path d="M12 3.89L14.07 8.075L14.415 8.825L15.165 8.9375L19.785 9.605L16.5 12.83L15.9375 13.3775L16.0725 14.1275L16.86 18.725L12.7275 16.5575L12 16.25L11.3025 16.6175L7.16996 18.755L7.91996 14.1575L8.05496 13.4075L7.49996 12.83L4.18496 9.5675L8.80496 8.9L9.55496 8.7875L9.89996 8.0375L12 3.89ZM12 0.5L8.58746 7.415L0.959961 8.5175L6.47996 13.9025L5.17496 21.5L12 17.915L18.825 21.5L17.52 13.9025L23.04 8.525L15.4125 7.415L12 0.5Z" fill="#6641FA"/>
</svg>
