<svg width="21" height="20" viewBox="0 0 21 20" fill="none" xmlns="http://www.w3.org/2000/svg">
<path d="M15.5 5V15H5.5V5H15.5ZM15.5 3.75H5.5C5.16848 3.75 4.85054 3.8817 4.61612 4.11612C4.3817 4.35054 4.25 4.66848 4.25 5V15C4.25 15.3315 4.3817 15.6495 4.61612 15.8839C4.85054 16.1183 5.16848 16.25 5.5 16.25H15.5C15.8315 16.25 16.1495 16.1183 16.3839 15.8839C16.6183 15.6495 16.75 15.3315 16.75 15V5C16.75 4.66848 16.6183 4.35054 16.3839 4.11612C16.1495 3.8817 15.8315 3.75 15.5 3.75Z" fill="#6641FA"/>
</svg>
